<svg width="345" height="272" viewBox="0 0 345 272" fill="none" xmlns="http://www.w3.org/2000/svg">
<path d="M192 46H169V95L192 80.4043V46Z" fill="#9B1919"/>
<path d="M153 68H130V119L153 106V68Z" fill="#9B1919"/>
<path d="M116 89H93V140L116 127.5V89Z" fill="#9B1919"/>
<path d="M171.873 0.957604C198.406 4.63674 222.39 18.7054 238.55 40.0686L233.436 43.9373C218.302 23.9305 195.84 10.7551 170.992 7.30955C146.143 3.86401 120.944 10.4306 100.937 25.5647C80.9305 40.6987 67.7551 63.1606 64.3095 88.009C61.066 111.401 66.695 135.103 79.9916 154.492C95 149 133.346 127.659 150 117.5C120.5 139.5 89 155.5 77.4503 161.932C61.2902 140.569 54.2785 113.661 57.9576 87.1282C61.6367 60.5952 75.7054 36.6105 97.0686 20.4503C118.432 4.29022 145.34 -2.72153 171.873 0.957604Z" fill="#9B1919"/>
<path d="M184.5 106C152.9 132.4 103.333 160.667 82.5 171.5C113.5 160.5 160 135.5 195 112C223 93.2 251.167 61.5 261.5 48.5L269 55.5L267.5 33.5H244.5L252 40C242.833 51.1667 216.1 79.6 184.5 106Z" fill="black" stroke="black"/>
<path d="M212 106.5C198.4 118.9 176 132.333 166.5 137.5L186 150L220.5 125L212 106.5Z" fill="black" stroke="black"/>
<path d="M145 188.5L150 193.5L155 198C181.5 201 188.5 196.5 201 191.5L182 181.5L145 188.5Z" fill="black"/>
<path d="M245 154C254.6 141.6 259 118.5 260 108.5L244 129.5C244.167 137.833 244.6 154.4 245 154Z" fill="black" stroke="black"/>
<path d="M104.066 171L94.5 173.379C113.455 190.372 142.565 196.874 155 198L149.438 191.276C126.046 188.572 109.443 176.632 104.066 171Z" fill="black"/>
<path d="M243.5 156C219.1 181.6 201.667 188.667 196 189L201 191.5C223.4 182.7 238.667 164.167 243.5 156Z" fill="black"/>
<path d="M220.5 125C225.833 125.667 237.9 127.5 243.5 129.5C238 128.833 225.7 127 220.5 125Z" fill="black"/>
<path d="M186 150.5C185.333 155.833 184 175.9 182 181.5C182.667 176 184 155.7 186 150.5Z" fill="black"/>
<path d="M112.718 168C118.283 171.588 135 182 145 188.5C129.5 180.5 128 181 112.718 168Z" fill="black"/>
<path d="M16.5938 214.837C21.8438 214.837 25.6688 215.906 28.0688 218.044C30.4688 220.144 31.6688 223.087 31.6688 226.875C31.6688 229.125 31.1625 231.225 30.15 233.175C29.175 235.125 27.525 236.719 25.2 237.956C22.875 239.156 19.725 239.756 15.75 239.756H11.4188V255H5.34375V214.837H16.5938ZM16.1438 219.956H11.4188V234.637H15.075C18.4875 234.637 21.0563 234.056 22.7813 232.894C24.5438 231.731 25.425 229.8 25.425 227.1C25.425 224.7 24.675 222.919 23.175 221.756C21.675 220.556 19.3313 219.956 16.1438 219.956ZM45.0734 255H39.1109V212.25H45.0734V255ZM66.1931 224.119C69.9806 224.119 72.8118 224.962 74.6868 226.65C76.5993 228.3 77.5556 230.906 77.5556 234.469V255H73.3368L72.1556 250.781H71.9306C70.6181 252.431 69.2306 253.65 67.7681 254.437C66.3431 255.188 64.3556 255.563 61.8056 255.563C59.0681 255.563 56.7993 254.831 54.9993 253.369C53.1993 251.869 52.2993 249.544 52.2993 246.394C52.2993 243.319 53.4618 240.975 55.7868 239.362C58.1118 237.75 61.6931 236.869 66.5306 236.719L71.7056 236.55V234.862C71.7056 232.65 71.1993 231.094 70.1868 230.194C69.1743 229.256 67.7493 228.787 65.9118 228.787C64.3743 228.787 62.8931 229.012 61.4681 229.462C60.0431 229.912 58.6743 230.456 57.3618 231.094L55.4493 226.762C56.8743 226.012 58.5056 225.394 60.3431 224.906C62.2181 224.381 64.1681 224.119 66.1931 224.119ZM67.5993 240.544C64.1493 240.694 61.7493 241.275 60.3993 242.287C59.0868 243.262 58.4306 244.65 58.4306 246.45C58.4306 248.025 58.8993 249.169 59.8368 249.881C60.7743 250.594 61.9931 250.95 63.4931 250.95C65.8181 250.95 67.7493 250.294 69.2868 248.981C70.8618 247.669 71.6493 245.7 71.6493 243.075V240.431L67.5993 240.544ZM82.1241 224.681H88.5366L94.8366 241.894C95.3241 243.206 95.7366 244.481 96.0741 245.719C96.4491 246.919 96.7304 248.1 96.9179 249.262H97.1429C97.3304 248.287 97.6116 247.144 97.9866 245.831C98.3991 244.519 98.8491 243.187 99.3366 241.837L105.299 224.681H111.712L98.7179 259.106C97.6304 262.031 96.1679 264.319 94.3304 265.969C92.5304 267.656 90.1679 268.5 87.2429 268.5C86.3054 268.5 85.4991 268.444 84.8241 268.331C84.1491 268.256 83.5679 268.163 83.0804 268.05V263.325C83.4554 263.4 83.9429 263.475 84.5429 263.55C85.1429 263.625 85.7616 263.663 86.3991 263.663C88.1241 263.663 89.5116 263.156 90.5616 262.144C91.6116 261.169 92.4366 259.875 93.0366 258.263L94.2741 255L82.1241 224.681ZM285.349 253.112C285.349 252.28 285.551 251.693 285.957 251.352C286.383 251.011 286.906 250.84 287.525 250.84C288.122 250.84 288.634 251.011 289.061 251.352C289.509 251.693 289.733 252.28 289.733 253.112C289.733 253.944 289.509 254.541 289.061 254.904C288.634 255.267 288.122 255.448 287.525 255.448C286.906 255.448 286.383 255.267 285.957 254.904C285.551 254.541 285.349 253.944 285.349 253.112ZM303.187 237.432C305.256 237.432 306.92 238.179 308.179 239.672C309.459 241.165 310.099 243.395 310.099 246.36C310.099 249.283 309.459 251.512 308.179 253.048C306.899 254.563 305.224 255.32 303.155 255.32C301.832 255.32 300.755 255.085 299.923 254.616C299.112 254.125 298.461 253.549 297.971 252.888H297.747C297.811 253.272 297.864 253.731 297.907 254.264C297.949 254.776 297.971 255.235 297.971 255.64V262.68H294.579V237.752H297.331L297.811 240.056H297.971C298.461 239.331 299.112 238.712 299.923 238.2C300.755 237.688 301.843 237.432 303.187 237.432ZM302.387 240.216C300.787 240.216 299.656 240.685 298.995 241.624C298.333 242.541 297.992 243.939 297.971 245.816V246.328C297.971 248.312 298.291 249.848 298.931 250.936C299.571 252.003 300.744 252.536 302.451 252.536C303.859 252.536 304.904 251.96 305.587 250.808C306.269 249.656 306.611 248.152 306.611 246.296C306.611 244.419 306.269 242.936 305.587 241.848C304.904 240.76 303.837 240.216 302.387 240.216ZM322.934 237.432C323.233 237.432 323.553 237.453 323.894 237.496C324.257 237.517 324.566 237.549 324.822 237.592L324.47 240.76C323.916 240.611 323.34 240.536 322.742 240.536C321.889 240.536 321.078 240.749 320.31 241.176C319.564 241.603 318.956 242.221 318.486 243.032C318.038 243.821 317.814 244.781 317.814 245.912V255H314.422V237.752H317.11L317.558 240.824H317.686C318.241 239.907 318.956 239.117 319.83 238.456C320.705 237.773 321.74 237.432 322.934 237.432ZM342.591 246.36C342.591 249.219 341.855 251.427 340.383 252.984C338.911 254.541 336.927 255.32 334.431 255.32C332.874 255.32 331.487 254.968 330.271 254.264C329.076 253.56 328.127 252.547 327.423 251.224C326.74 249.88 326.399 248.259 326.399 246.36C326.399 243.501 327.124 241.304 328.575 239.768C330.026 238.211 332.01 237.432 334.527 237.432C336.106 237.432 337.492 237.784 338.687 238.488C339.903 239.171 340.852 240.173 341.535 241.496C342.239 242.819 342.591 244.44 342.591 246.36ZM329.887 246.36C329.887 248.301 330.25 249.816 330.975 250.904C331.722 251.992 332.895 252.536 334.495 252.536C336.095 252.536 337.258 251.992 337.983 250.904C338.73 249.816 339.103 248.301 339.103 246.36C339.103 244.397 338.73 242.893 337.983 241.848C337.236 240.781 336.063 240.248 334.463 240.248C332.863 240.248 331.7 240.781 330.975 241.848C330.25 242.893 329.887 244.397 329.887 246.36Z" fill="black"/>
<path d="M134.568 255L122.418 220.856H122.193C122.231 221.644 122.287 222.675 122.362 223.95C122.437 225.187 122.493 226.537 122.531 228C122.568 229.462 122.587 230.906 122.587 232.331V255H117.075V214.837H125.737L137.268 247.069H137.493L149.362 214.837H158.025V255H152.118V231.994C152.118 230.719 152.137 229.387 152.175 228C152.25 226.575 152.306 225.244 152.343 224.006C152.418 222.769 152.475 221.737 152.512 220.912H152.287L139.8 255H134.568ZM179.792 224.119C183.579 224.119 186.41 224.962 188.285 226.65C190.198 228.3 191.154 230.906 191.154 234.469V255H186.935L185.754 250.781H185.529C184.217 252.431 182.829 253.65 181.367 254.437C179.942 255.188 177.954 255.563 175.404 255.563C172.667 255.563 170.398 254.831 168.598 253.369C166.798 251.869 165.898 249.544 165.898 246.394C165.898 243.319 167.06 240.975 169.385 239.362C171.71 237.75 175.292 236.869 180.129 236.719L185.304 236.55V234.862C185.304 232.65 184.798 231.094 183.785 230.194C182.773 229.256 181.348 228.787 179.51 228.787C177.973 228.787 176.492 229.012 175.067 229.462C173.642 229.912 172.273 230.456 170.96 231.094L169.048 226.762C170.473 226.012 172.104 225.394 173.942 224.906C175.817 224.381 177.767 224.119 179.792 224.119ZM181.198 240.544C177.748 240.694 175.348 241.275 173.998 242.287C172.685 243.262 172.029 244.65 172.029 246.45C172.029 248.025 172.498 249.169 173.435 249.881C174.373 250.594 175.592 250.95 177.092 250.95C179.417 250.95 181.348 250.294 182.885 248.981C184.46 247.669 185.248 245.7 185.248 243.075V240.431L181.198 240.544ZM206.242 233.625C206.242 234.375 206.204 235.275 206.129 236.325C206.054 237.375 205.998 238.312 205.96 239.137H206.129C206.542 238.575 207.104 237.844 207.817 236.944C208.567 236.006 209.223 235.237 209.785 234.637L219.067 224.681H225.985L213.779 237.675L226.773 255H219.742L209.729 241.444L206.242 244.369V255H200.335V212.25H206.242V233.625ZM243.681 224.119C247.656 224.119 250.787 225.356 253.075 227.831C255.362 230.269 256.506 233.606 256.506 237.844V241.106H236.144C236.219 244.219 237.025 246.6 238.562 248.25C240.137 249.9 242.331 250.725 245.144 250.725C247.094 250.725 248.819 250.556 250.319 250.219C251.856 249.844 253.431 249.3 255.044 248.587V253.537C253.506 254.212 251.969 254.719 250.431 255.056C248.894 255.394 247.056 255.563 244.919 255.563C241.956 255.563 239.35 254.981 237.1 253.819C234.887 252.656 233.144 250.931 231.869 248.644C230.631 246.319 230.012 243.469 230.012 240.094C230.012 236.681 230.575 233.794 231.7 231.431C232.862 229.069 234.456 227.269 236.481 226.031C238.544 224.756 240.944 224.119 243.681 224.119ZM243.681 228.731C241.544 228.731 239.819 229.425 238.506 230.812C237.231 232.2 236.481 234.169 236.256 236.719H250.544C250.506 234.356 249.925 232.444 248.8 230.981C247.712 229.481 246.006 228.731 243.681 228.731ZM278.909 224.119C279.434 224.119 279.996 224.156 280.596 224.231C281.234 224.269 281.777 224.325 282.227 224.4L281.609 229.969C280.634 229.706 279.621 229.575 278.571 229.575C277.071 229.575 275.646 229.95 274.296 230.7C272.984 231.45 271.915 232.537 271.09 233.962C270.302 235.35 269.909 237.037 269.909 239.025V255H263.946V224.681H268.671L269.459 230.081H269.684C270.659 228.469 271.915 227.081 273.452 225.919C274.99 224.719 276.809 224.119 278.909 224.119Z" fill="#9B1919"/>
</svg>
